<?xml version="1.0" standalone="no"?>
<!DOCTYPE svg PUBLIC "-//W3C//DTD SVG 20010904//EN"
 "http://www.w3.org/TR/2001/REC-SVG-20010904/DTD/svg10.dtd">
<svg version="1.0" xmlns="http://www.w3.org/2000/svg"
 width="512.000000pt" height="512.000000pt" viewBox="0 0 512.000000 512.000000"
 preserveAspectRatio="xMidYMid meet">

<g transform="translate(0.000000,512.000000) scale(0.100000,-0.100000)"
fill="#000000" stroke="none">
<path d="M562 4888 c-192 -28 -363 -180 -434 -387 l-23 -66 0 -1465 0 -1465
28 -78 c67 -190 193 -317 377 -379 64 -22 76 -22 678 -26 570 -3 613 -4 608
-20 -3 -9 -26 -101 -52 -204 l-46 -187 -268 -3 -268 -3 -39 -31 c-21 -16 -46
-47 -56 -67 -23 -45 -25 -129 -5 -177 20 -46 72 -96 117 -112 53 -19 2709 -19
2762 0 45 16 97 66 117 112 20 48 18 132 -5 177 -10 20 -35 51 -56 67 l-39 31
-258 3 -258 3 -46 187 c-26 103 -49 195 -52 204 -5 16 36 17 603 20 555 3 613
5 663 22 193 63 335 200 402 386 l23 65 3 1425 c2 1019 -1 1444 -9 1492 -6 39
-28 103 -50 149 -74 152 -240 287 -391 318 -61 13 -3942 21 -4026 9z m3960
-407 c19 -13 46 -40 59 -59 l24 -36 3 -1068 2 -1068 -2050 0 -2050 0 2 1068 3
1068 24 35 c29 43 65 70 105 80 17 4 889 6 1937 6 l1905 -2 36 -24z"/>
<path d="M2396 4106 c-93 -35 -133 -94 -145 -215 -9 -85 -35 -141 -74 -163
-34 -18 -138 -35 -179 -28 -46 8 -86 34 -98 64 -10 28 -69 57 -126 64 -58 6
-117 -23 -199 -99 -188 -176 -208 -268 -85 -403 68 -75 80 -116 55 -185 -33
-94 -107 -151 -197 -151 -90 0 -167 -44 -199 -114 -13 -30 -19 -65 -19 -129
l0 -87 408 2 407 3 6 75 c12 143 62 259 154 358 73 79 150 129 255 166 75 26
98 29 200 29 102 0 125 -3 200 -29 235 -82 388 -277 408 -519 l7 -80 408 -3
407 -2 0 85 c0 65 -5 95 -19 123 -37 72 -97 111 -187 122 -126 16 -219 102
-218 203 0 61 20 103 79 169 53 59 72 124 55 186 -12 48 -63 114 -153 200
-140 133 -238 136 -358 11 l-59 -62 -83 5 c-142 9 -184 49 -198 190 -10 101
-43 161 -109 198 -41 23 -58 25 -175 28 -94 1 -141 -2 -169 -12z"/>
</g>
</svg>
