<?xml version="1.0" standalone="no"?>
<!DOCTYPE svg PUBLIC "-//W3C//DTD SVG 20010904//EN"
 "http://www.w3.org/TR/2001/REC-SVG-20010904/DTD/svg10.dtd">
<svg version="1.0" xmlns="http://www.w3.org/2000/svg"
 width="512.000000pt" height="512.000000pt" viewBox="0 0 512.000000 512.000000"
 preserveAspectRatio="xMidYMid meet">

<g transform="translate(0.000000,512.000000) scale(0.100000,-0.100000)"
fill="#000000" stroke="none">
<path d="M1655 5110 c-195 -41 -352 -179 -417 -368 l-23 -67 0 -905 0 -905 23
-67 c57 -165 185 -293 351 -350 l66 -23 905 0 905 0 67 23 c165 57 293 185
350 351 l23 66 0 905 0 905 -23 67 c-57 164 -178 286 -348 350 l-59 23 -890 2
c-489 0 -908 -3 -930 -7z m1586 -793 c61 -41 86 -125 55 -185 -8 -15 -217
-229 -464 -476 l-450 -449 -55 -5 c-36 -3 -63 1 -83 11 -42 22 -411 397 -423
430 -27 71 0 147 65 184 85 49 133 27 299 -137 l131 -130 369 371 c204 204
384 380 400 390 42 27 113 25 156 -4z"/>
<path d="M775 2089 c-173 -35 -331 -179 -391 -359 -26 -76 -26 -234 0 -310 56
-167 179 -290 346 -346 83 -28 234 -26 323 5 159 54 278 176 333 341 26 76 26
234 0 310 -73 218 -252 355 -476 365 -47 2 -107 0 -135 -6z"/>
<path d="M2438 2084 c-174 -42 -326 -183 -378 -352 -27 -87 -27 -227 0 -314
53 -171 204 -311 382 -353 262 -62 539 96 618 353 27 87 27 227 0 314 -79 258
-359 416 -622 352z"/>
<path d="M4125 2089 c-129 -26 -277 -134 -342 -250 -52 -92 -68 -153 -68 -264
0 -152 47 -267 150 -370 103 -103 218 -150 370 -150 119 0 202 25 295 86 145
97 225 251 225 434 0 141 -35 236 -126 346 -110 133 -325 204 -504 168z"/>
<path d="M248 923 c-98 -105 -160 -213 -204 -360 -23 -76 -27 -112 -31 -264
-5 -164 -4 -178 16 -217 14 -28 35 -49 61 -62 38 -19 58 -20 670 -20 l630 0 0
229 c0 299 25 431 116 612 l33 66 -39 38 -39 38 -49 -42 c-142 -119 -341 -191
-527 -191 -185 0 -385 72 -525 190 -26 22 -50 40 -52 40 -3 0 -30 -26 -60 -57z"/>
<path d="M1900 898 c-85 -100 -161 -246 -190 -368 -16 -66 -22 -135 -27 -307
l-6 -223 883 0 883 0 -6 223 c-5 172 -11 241 -27 305 -22 93 -71 206 -121 279
-39 58 -138 173 -148 173 -4 0 -36 -23 -71 -51 -78 -62 -195 -122 -297 -151
-102 -29 -313 -32 -413 -5 -93 25 -256 109 -317 162 -28 25 -56 45 -62 45 -6
0 -42 -37 -81 -82z"/>
<path d="M3618 943 l-37 -36 33 -66 c91 -181 116 -313 116 -612 l0 -229 630 0
c612 0 632 1 670 20 26 13 47 34 61 62 20 39 21 53 16 217 -4 152 -8 188 -31
264 -44 148 -122 281 -219 376 l-46 44 -49 -42 c-142 -119 -341 -191 -527
-191 -185 0 -385 72 -525 190 -26 22 -49 40 -52 40 -2 0 -20 -16 -40 -37z"/>
</g>
</svg>
